<svg xmlns="http://www.w3.org/2000/svg" xmlns:xlink="http://www.w3.org/1999/xlink" width="500" zoomAndPan="magnify" viewBox="0 0 375 374.999991" height="500" preserveAspectRatio="xMidYMid meet" version="1.0"><defs><clipPath id="8dcae04951"><path d="M 161 110.683594 L 206 110.683594 L 206 254 L 161 254 Z M 161 110.683594 " clip-rule="nonzero"/></clipPath><clipPath id="c2879edbee"><path d="M 178 151 L 246.066406 151 L 246.066406 264.433594 L 178 264.433594 Z M 178 151 " clip-rule="nonzero"/></clipPath><clipPath id="3fb4d3f3ff"><path d="M 129.066406 163 L 175 163 L 175 264 L 129.066406 264 Z M 129.066406 163 " clip-rule="nonzero"/></clipPath></defs><g clip-path="url(#8dcae04951)"><path fill="#000000" d="M 174.101562 253.871094 C 160.75 239.09375 159.699219 225.796875 164.886719 211.238281 C 170.496094 195.492188 180.332031 186.851562 183.496094 170.136719 C 185.132812 161.515625 185.636719 154.460938 185.191406 147.945312 L 185.175781 147.757812 C 184.320312 135.757812 180.214844 125.550781 173.953125 110.683594 C 195.105469 138.949219 213.484375 157.339844 201.902344 185.421875 C 192.179688 209.019531 165.847656 228.148438 174.097656 253.867188 Z M 174.101562 253.871094 " fill-opacity="1" fill-rule="evenodd"/></g><g clip-path="url(#c2879edbee)"><path fill="#5e17eb" d="M 179.167969 239.648438 C 182.972656 212.953125 225.199219 193.550781 207.90625 151.90625 C 230.15625 160.164062 246.011719 181.578125 246.011719 206.695312 C 246.011719 234.6875 226.324219 258.078125 200.035156 263.789062 C 183.25 267.4375 176.960938 255.148438 179.164062 239.648438 Z M 179.167969 239.648438 " fill-opacity="1" fill-rule="evenodd"/></g><g clip-path="url(#3fb4d3f3ff)"><path fill="#ffa600" d="M 159.199219 209.214844 C 152.535156 227.917969 156.25 243.117188 169.621094 257.917969 L 174.878906 263.742188 C 148.699219 257.953125 129.117188 234.609375 129.117188 206.695312 C 129.117188 189.699219 136.378906 174.394531 147.972656 163.71875 C 133.550781 201.074219 140.222656 217.222656 164.296875 197.9375 C 162.386719 201.515625 160.640625 205.175781 159.199219 209.214844 Z M 159.199219 209.214844 " fill-opacity="1" fill-rule="evenodd"/></g><path fill="#5e17eb" d="M 169.574219 183.019531 C 169.082031 183.886719 168.535156 184.714844 167.929688 185.496094 C 167.324219 186.277344 166.679688 187.003906 165.988281 187.671875 C 165.296875 188.339844 164.578125 188.9375 163.828125 189.46875 C 163.078125 189.996094 162.3125 190.441406 161.53125 190.808594 C 160.75 191.175781 159.96875 191.457031 159.183594 191.648438 C 158.402344 191.84375 157.632812 191.945312 156.878906 191.953125 C 156.125 191.964844 155.402344 191.882812 154.707031 191.710938 C 154.011719 191.539062 153.355469 191.28125 152.746094 190.933594 C 152.132812 190.585938 151.578125 190.15625 151.074219 189.644531 C 150.570312 189.136719 150.132812 188.554688 149.757812 187.902344 C 149.378906 187.246094 149.074219 186.535156 148.84375 185.765625 C 148.609375 184.992188 148.449219 184.179688 148.367188 183.320312 C 148.285156 182.460938 148.277344 181.574219 148.347656 180.660156 C 148.421875 179.746094 148.566406 178.820312 148.789062 177.886719 C 149.011719 176.949219 149.304688 176.023438 149.671875 175.105469 C 150.035156 174.1875 150.464844 173.292969 150.960938 172.425781 C 151.453125 171.558594 152 170.734375 152.605469 169.953125 C 153.210938 169.167969 153.855469 168.445312 154.546875 167.777344 C 155.238281 167.109375 155.957031 166.507812 156.707031 165.980469 C 157.457031 165.453125 158.222656 165.007812 159.003906 164.640625 C 159.785156 164.269531 160.566406 163.992188 161.351562 163.796875 C 162.132812 163.605469 162.902344 163.503906 163.65625 163.492188 C 164.410156 163.484375 165.132812 163.5625 165.828125 163.734375 C 166.523438 163.90625 167.179688 164.167969 167.789062 164.515625 C 168.402344 164.863281 168.957031 165.292969 169.460938 165.800781 C 169.964844 166.3125 170.402344 166.894531 170.777344 167.546875 C 171.15625 168.199219 171.460938 168.914062 171.691406 169.683594 C 171.925781 170.457031 172.085938 171.269531 172.167969 172.128906 C 172.25 172.988281 172.257812 173.875 172.1875 174.789062 C 172.113281 175.703125 171.96875 176.628906 171.746094 177.5625 C 171.523438 178.496094 171.230469 179.425781 170.863281 180.34375 C 170.5 181.261719 170.070312 182.152344 169.574219 183.019531 Z M 169.574219 183.019531 " fill-opacity="1" fill-rule="nonzero"/></svg>